<svg width="33" height="33" viewBox="0 0 33 33" fill="none" xmlns="http://www.w3.org/2000/svg">
<circle cx="16.5" cy="16.5" r="16" stroke="#9E9E9E"/>
<path d="M11.5814 24.3996H8.26429V14.1181H11.5814V24.3996ZM9.92107 12.7156C8.86036 12.7156 8 11.87 8 10.849C8 10.3586 8.2024 9.88833 8.56267 9.54157C8.92294 9.19481 9.41157 9 9.92107 9C10.4306 9 10.9192 9.19481 11.2795 9.54157C11.6397 9.88833 11.8421 10.3586 11.8421 10.849C11.8421 11.87 10.9814 12.7156 9.92107 12.7156ZM23.9964 24.3996H20.6864V19.3946C20.6864 18.2018 20.6614 16.6722 18.9618 16.6722C17.2371 16.6722 16.9729 17.9681 16.9729 19.3087V24.3996H13.6593V14.1181H16.8407V15.5206H16.8871C17.33 14.7128 18.4118 13.8603 20.0257 13.8603C23.3829 13.8603 24 15.9881 24 18.7518V24.3996H23.9964Z" fill="#333333"/>
</svg>
