<svg width="35" height="35" viewBox="0 0 35 35" fill="none" xmlns="http://www.w3.org/2000/svg">
<circle cx="17.5" cy="17.5" r="17" fill="#FFF3E0" stroke="#EF9F2E"/>
<path d="M17.0018 12.8978C14.7316 12.8978 12.9005 14.7293 12.9005 17C12.9005 19.2707 14.7316 21.1022 17.0018 21.1022C19.2719 21.1022 21.1031 19.2707 21.1031 17C21.1031 14.7293 19.2719 12.8978 17.0018 12.8978ZM17.0018 19.667C15.5347 19.667 14.3354 18.4709 14.3354 17C14.3354 15.5291 15.5312 14.333 17.0018 14.333C18.4724 14.333 19.6682 15.5291 19.6682 17C19.6682 18.4709 18.4688 19.667 17.0018 19.667ZM22.2274 12.73C22.2274 13.262 21.7991 13.6868 21.2708 13.6868C20.739 13.6868 20.3142 13.2584 20.3142 12.73C20.3142 12.2016 20.7426 11.7732 21.2708 11.7732C21.7991 11.7732 22.2274 12.2016 22.2274 12.73ZM24.9438 13.7011C24.8831 12.4194 24.5904 11.2841 23.6516 10.3487C22.7165 9.41325 21.5814 9.1205 20.2999 9.05623C18.9793 8.98126 15.0207 8.98126 13.7001 9.05623C12.4222 9.11693 11.2871 9.40968 10.3484 10.3451C9.40959 11.2805 9.12047 12.4158 9.05622 13.6975C8.98126 15.0185 8.98126 18.9779 9.05622 20.2989C9.1169 21.5806 9.40959 22.7159 10.3484 23.6513C11.2871 24.5867 12.4186 24.8795 13.7001 24.9438C15.0207 25.0187 18.9793 25.0187 20.2999 24.9438C21.5814 24.8831 22.7165 24.5903 23.6516 23.6513C24.5868 22.7159 24.8795 21.5806 24.9438 20.2989C25.0187 18.9779 25.0187 15.0221 24.9438 13.7011ZM23.2376 21.7163C22.9592 22.416 22.4202 22.9551 21.717 23.2372C20.664 23.6549 18.1654 23.5585 17.0018 23.5585C15.8381 23.5585 13.336 23.6513 12.2866 23.2372C11.5869 22.9587 11.048 22.4196 10.766 21.7163C10.3484 20.6631 10.4447 18.1639 10.4447 17C10.4447 15.8361 10.3519 13.3334 10.766 12.2837C11.0444 11.584 11.5834 11.0449 12.2866 10.7628C13.3395 10.3451 15.8381 10.4415 17.0018 10.4415C18.1654 10.4415 20.6676 10.3487 21.717 10.7628C22.4166 11.0413 22.9556 11.5804 23.2376 12.2837C23.6552 13.3369 23.5588 15.8361 23.5588 17C23.5588 18.1639 23.6552 20.6666 23.2376 21.7163Z" fill="#EF9F2E"/>
</svg>
