<svg width="35" height="35" viewBox="0 0 35 35" fill="none" xmlns="http://www.w3.org/2000/svg">
<circle cx="17.5" cy="17.5" r="17" fill="#FFF3E0" stroke="#EF9F2E"/>
<path d="M12.5814 25H9.26429V14.3176H12.5814V25ZM10.9211 12.8604C9.86036 12.8604 9 11.9819 9 10.9211C9 10.4116 9.2024 9.92296 9.56267 9.56268C9.92294 9.2024 10.4116 9 10.9211 9C11.4306 9 11.9192 9.2024 12.2795 9.56268C12.6397 9.92296 12.8421 10.4116 12.8421 10.9211C12.8421 11.9819 11.9814 12.8604 10.9211 12.8604ZM24.9964 25H21.6864V19.7999C21.6864 18.5606 21.6614 16.9712 19.9618 16.9712C18.2371 16.9712 17.9729 18.3177 17.9729 19.7106V25H14.6593V14.3176H17.8407V15.7748H17.8871C18.33 14.9355 19.4118 14.0498 21.0257 14.0498C24.3829 14.0498 25 16.2605 25 19.132V25H24.9964Z" fill="#EF9F2E"/>
</svg>
