<svg width="33" height="33" viewBox="0 0 33 33" fill="none" xmlns="http://www.w3.org/2000/svg">
<path d="M16.0018 11.8978C13.7316 11.8978 11.9005 13.7293 11.9005 16C11.9005 18.2707 13.7316 20.1022 16.0018 20.1022C18.2719 20.1022 20.1031 18.2707 20.1031 16C20.1031 13.7293 18.2719 11.8978 16.0018 11.8978ZM16.0018 18.667C14.5347 18.667 13.3354 17.4709 13.3354 16C13.3354 14.5291 14.5312 13.333 16.0018 13.333C17.4724 13.333 18.6682 14.5291 18.6682 16C18.6682 17.4709 17.4688 18.667 16.0018 18.667ZM21.2274 11.73C21.2274 12.262 20.7991 12.6868 20.2708 12.6868C19.739 12.6868 19.3142 12.2584 19.3142 11.73C19.3142 11.2016 19.7426 10.7732 20.2708 10.7732C20.7991 10.7732 21.2274 11.2016 21.2274 11.73ZM23.9438 12.7011C23.8831 11.4194 23.5904 10.2841 22.6516 9.34866C21.7165 8.41325 20.5814 8.1205 19.2999 8.05623C17.9793 7.98126 14.0207 7.98126 12.7001 8.05623C11.4222 8.11693 10.2871 8.40968 9.34835 9.34509C8.40959 10.2805 8.12047 11.4158 8.05622 12.6975C7.98126 14.0185 7.98126 17.9779 8.05622 19.2989C8.1169 20.5806 8.40959 21.7159 9.34835 22.6513C10.2871 23.5867 11.4186 23.8795 12.7001 23.9438C14.0207 24.0187 17.9793 24.0187 19.2999 23.9438C20.5814 23.8831 21.7165 23.5903 22.6516 22.6513C23.5868 21.7159 23.8795 20.5806 23.9438 19.2989C24.0187 17.9779 24.0187 14.0221 23.9438 12.7011ZM22.2376 20.7163C21.9592 21.416 21.4202 21.9551 20.717 22.2372C19.664 22.6549 17.1654 22.5585 16.0018 22.5585C14.8381 22.5585 12.336 22.6513 11.2866 22.2372C10.5869 21.9587 10.048 21.4196 9.76598 20.7163C9.34835 19.6631 9.44473 17.1639 9.44473 16C9.44473 14.8361 9.35192 12.3334 9.76598 11.2837C10.0444 10.584 10.5834 10.0449 11.2866 9.7628C12.3395 9.34509 14.8381 9.44148 16.0018 9.44148C17.1654 9.44148 19.6676 9.34866 20.717 9.7628C21.4166 10.0413 21.9556 10.5804 22.2376 11.2837C22.6552 12.3369 22.5588 14.8361 22.5588 16C22.5588 17.1639 22.6552 19.6666 22.2376 20.7163Z" fill="#333333"/>
<circle cx="16.5" cy="16.5" r="16" stroke="#9E9E9E"/>
</svg>
