<svg width="33" height="33" viewBox="0 0 33 33" fill="none" xmlns="http://www.w3.org/2000/svg">
<circle cx="16.5" cy="16.5" r="16.25" fill="#DDDDDD" stroke="#9E9E9E" stroke-width="0.5"/>
<g clip-path="url(#clip0)">
<path d="M25 16.7273C25 21.3977 21.4194 25.1818 17 25.1818C16.1742 25.1818 15.3806 25.0488 14.6323 24.8034C14.9581 24.2409 15.4452 23.3204 15.6258 22.5875C15.7226 22.192 16.1226 20.5761 16.1226 20.5761C16.3839 21.1011 17.1452 21.5477 17.9548 21.5477C20.3677 21.5477 22.1065 19.2022 22.1065 16.2875C22.1065 13.4954 19.9484 11.4057 17.1742 11.4057C13.7226 11.4057 11.8871 13.8534 11.8871 16.5227C11.8871 17.7636 12.5129 19.3079 13.5097 19.7988C13.6613 19.8738 13.7419 19.8397 13.7774 19.6863C13.8032 19.5704 13.9387 18.9943 14 18.7284C14.0194 18.6432 14.0097 18.5682 13.9452 18.4863C13.6194 18.0602 13.3548 17.2829 13.3548 16.5568C13.3548 14.692 14.6903 12.8886 16.9677 12.8886C18.9323 12.8886 20.3097 14.3034 20.3097 16.3284C20.3097 18.6159 19.2161 20.2011 17.7935 20.2011C17.0097 20.2011 16.4194 19.5159 16.6097 18.6738C16.8355 17.6682 17.271 16.5841 17.271 15.8579C17.271 15.2102 16.9419 14.6682 16.2581 14.6682C15.4548 14.6682 14.8097 15.5443 14.8097 16.7204C14.8097 17.4704 15.0484 17.975 15.0484 17.975C15.0484 17.975 14.2581 21.5136 14.1129 22.175C13.9516 22.9045 14.0161 23.9341 14.0839 24.6022C11.1097 23.3716 9 20.3102 9 16.7273C9 12.0568 12.5806 8.27271 17 8.27271C21.4194 8.27271 25 12.0568 25 16.7273Z" fill="#989898"/>
</g>
<defs>
<clipPath id="clip0">
<rect width="16" height="17.4545" fill="white" transform="translate(9 8)"/>
</clipPath>
</defs>
</svg>
