<svg width="33" height="33" viewBox="0 0 33 33" fill="none" xmlns="http://www.w3.org/2000/svg">
<circle cx="16.5" cy="16.5" r="16.25" fill="#DDDDDD" stroke="#9E9E9E" stroke-width="0.5"/>
<path d="M23.2682 12.2302C23.0937 11.4239 22.5797 10.7889 21.927 10.5735C20.7439 10.1819 16 10.1819 16 10.1819C16 10.1819 11.2561 10.1819 10.073 10.5735C9.42032 10.789 8.90627 11.4239 8.7318 12.2302C8.41479 13.6915 8.41479 16.7406 8.41479 16.7406C8.41479 16.7406 8.41479 19.7896 8.7318 21.251C8.90627 22.0572 9.42032 22.6657 10.073 22.8812C11.2561 23.2728 16 23.2728 16 23.2728C16 23.2728 20.7439 23.2728 21.927 22.8812C22.5797 22.6657 23.0937 22.0572 23.2682 21.251C23.5852 19.7896 23.5852 16.7406 23.5852 16.7406C23.5852 16.7406 23.5852 13.6915 23.2682 12.2302ZM14.4485 19.5089V13.9723L18.4134 16.7406L14.4485 19.5089Z" fill="#989898"/>
</svg>
