<svg width="42" height="42" viewBox="0 0 42 42" fill="none" xmlns="http://www.w3.org/2000/svg">
<circle cx="21" cy="21" r="20.5" fill="url(#paint0_linear)" stroke="#EF2EA2"/>
<path d="M21.0027 14.8467C17.5974 14.8467 14.8508 17.594 14.8508 21C14.8508 24.406 17.5974 27.1533 21.0027 27.1533C24.4079 27.1533 27.1546 24.406 27.1546 21C27.1546 17.594 24.4079 14.8467 21.0027 14.8467ZM21.0027 25.0004C18.8021 25.0004 17.0031 23.2064 17.0031 21C17.0031 18.7936 18.7968 16.9996 21.0027 16.9996C23.2086 16.9996 25.0022 18.7936 25.0022 21C25.0022 23.2064 23.2032 25.0004 21.0027 25.0004ZM28.8412 14.595C28.8412 15.3929 28.1987 16.0302 27.4062 16.0302C26.6085 16.0302 25.9713 15.3876 25.9713 14.595C25.9713 13.8024 26.6138 13.1598 27.4062 13.1598C28.1987 13.1598 28.8412 13.8024 28.8412 14.595ZM32.9157 16.0517C32.8247 14.1291 32.3856 12.4261 30.9775 11.023C29.5747 9.61988 27.8721 9.18074 25.9499 9.08435C23.9689 8.97188 18.0311 8.97188 16.0501 9.08435C14.1333 9.17539 12.4307 9.61453 11.0225 11.0176C9.61439 12.4207 9.1807 14.1237 9.08433 16.0463C8.97189 18.0278 8.97189 23.9669 9.08433 25.9483C9.17535 27.8709 9.61439 29.5739 11.0225 30.977C12.4307 32.3801 14.1279 32.8193 16.0501 32.9157C18.0311 33.0281 23.9689 33.0281 25.9499 32.9157C27.8721 32.8246 29.5747 32.3855 30.9775 30.977C32.3803 29.5739 32.8193 27.8709 32.9157 25.9483C33.0281 23.9669 33.0281 18.0331 32.9157 16.0517ZM30.3564 28.0744C29.9388 29.1241 29.1303 29.9327 28.0755 30.3558C26.496 30.9824 22.7481 30.8378 21.0027 30.8378C19.2572 30.8378 15.504 30.977 13.9298 30.3558C12.8804 29.9381 12.0719 29.1294 11.649 28.0744C11.0225 26.4946 11.1671 22.7458 11.1671 21C11.1671 19.2542 11.0279 15.5001 11.649 13.9256C12.0666 12.8759 12.8751 12.0673 13.9298 11.6442C15.5093 11.0176 19.2572 11.1622 21.0027 11.1622C22.7481 11.1622 26.5014 11.023 28.0755 11.6442C29.1249 12.0619 29.9334 12.8706 30.3564 13.9256C30.9828 15.5054 30.8383 19.2542 30.8383 21C30.8383 22.7458 30.9828 26.4999 30.3564 28.0744Z" fill="white"/>
<defs>
<linearGradient id="paint0_linear" x1="21" y1="1" x2="14.9394" y2="47.0606" gradientUnits="userSpaceOnUse">
<stop stop-color="#EF2EA2"/>
<stop offset="1" stop-color="#E0A22B"/>
</linearGradient>
</defs>
</svg>
