<svg width="119" height="158" viewBox="0 0 119 158" fill="none" xmlns="http://www.w3.org/2000/svg">
<path opacity="0.2" d="M44.75 44.6161C44.4299 42.9157 44.2295 41.195 44.15 39.4666L63.902 46.1166L44.204 35.8655C44.4898 30.7717 45.8123 25.7899 48.0903 21.2253C50.3683 16.6607 53.5539 12.6094 57.452 9.31941L76.538 36.9278L61.718 6.22247C66.0734 3.49574 70.9434 1.69538 76.0247 0.93358C81.106 0.171775 86.2897 0.464838 91.2529 1.79451C96.216 3.12418 100.852 5.46198 104.873 8.66224C108.893 11.8625 112.212 15.8567 114.622 20.3959C117.032 24.9351 118.481 29.9221 118.88 35.0462C119.279 40.1703 118.619 45.3218 116.941 50.1795C115.263 55.0373 112.603 59.4974 109.126 63.2818C105.65 67.0663 101.431 70.094 96.734 72.1765C97.2224 74.8259 97.4235 77.5203 97.334 80.2129L67.334 79.9728L96.902 84.8464C95.9024 90.9881 93.3881 96.7837 89.5863 101.709C85.7845 106.634 80.8152 110.534 75.128 113.055C76.3808 119.967 75.664 127.092 73.0596 133.616C70.4552 140.139 66.0682 145.799 60.4002 149.946C54.7322 154.093 48.012 156.562 41.0078 157.069C34.0036 157.576 26.998 156.101 20.7921 152.814C14.5861 149.526 9.43021 144.558 5.91377 138.477C2.39734 132.397 0.662302 125.449 0.90701 118.429C1.15172 111.408 3.3663 104.598 7.29757 98.7775C11.2289 92.9567 16.7182 88.3599 23.138 85.5126C21.6428 77.2529 22.9654 68.7302 26.8934 61.3127C30.8214 53.8951 37.127 48.0129 44.798 44.6101L44.75 44.6161Z" fill="#FF962B"/>
</svg>
