<svg width="187" height="319" viewBox="0 0 187 319" fill="none" xmlns="http://www.w3.org/2000/svg">
<path opacity="0.2" d="M137.628 102.661C139.007 99.6335 140.171 96.5129 141.114 93.3224L101.184 96.3893L142.8 86.5403C144.669 76.8958 144.552 66.9712 142.454 57.3738C140.357 47.7763 136.324 38.7079 130.602 30.7233L81.93 73.2523L124.086 22.939C117.242 15.8029 109.002 10.1523 99.881 6.33881C90.7595 2.52533 80.9509 0.630616 71.0658 0.772578C61.1807 0.914541 51.4306 3.09015 42.4222 7.16399C33.4139 11.2378 25.3402 17.1227 18.7036 24.4524C12.067 31.7821 7.00959 40.3996 3.84606 49.7688C0.682519 59.138 -0.519391 69.0582 0.315106 78.912C1.1496 88.7659 4.00266 98.3425 8.6967 107.046C13.3908 115.749 19.8253 123.393 27.6 129.501C25.4505 134.216 23.819 139.151 22.734 144.218L78.888 157.95L21.408 153.077C20.3633 165.025 22.3148 177.046 27.086 188.05C31.8571 199.054 39.297 208.693 48.732 216.096C43.1315 228.405 41.1066 242.041 42.8888 255.447C44.671 268.853 50.1884 281.487 58.81 291.904C67.4317 302.321 78.8097 310.101 91.6433 314.354C104.477 318.608 118.248 319.163 131.382 315.957C144.516 312.751 156.484 305.912 165.916 296.223C175.348 286.534 181.864 274.386 184.719 261.167C187.574 247.948 186.654 234.193 182.062 221.473C177.47 208.753 169.393 197.582 158.754 189.237C165.448 174.527 167.004 157.993 163.172 142.291C159.341 126.59 150.344 112.632 137.628 102.661Z" fill="#FF962B"/>
</svg>
